<svg width="96" height="96" viewBox="0 0 96 96" fill="none" xmlns="http://www.w3.org/2000/svg" xmlns:xlink="http://www.w3.org/1999/xlink">
<circle cx="48" cy="48" r="47.5" fill="url(#pattern0_1748_193)" stroke="black"/>
<circle cx="81" cy="81" r="15" fill="black"/>
<path d="M82.3589 84.8526V83.1899C82.3589 82.9643 82.5961 82.7816 82.8885 82.7816C83.9318 82.7816 84.4994 81.9565 84.5782 80.3277H82.8885C82.5961 80.3277 82.3589 80.1447 82.3589 79.9194V76.4086C82.3589 76.1831 82.5961 76.0003 82.8885 76.0003H87.3935C87.6858 76.0003 87.9231 76.1833 87.9231 76.4086V79.9194C87.9231 80.7001 87.8209 81.4165 87.6202 82.0493C87.4141 82.6979 87.0977 83.265 86.68 83.7349C86.2504 84.2178 85.7125 84.5968 85.0823 84.8607C84.4474 85.1263 83.7092 85.2611 82.8882 85.2611C82.5961 85.2609 82.3589 85.078 82.3589 84.8526ZM75.5294 82.7814C75.2371 82.7814 75 82.9643 75 83.1896V84.8526C75 85.078 75.2371 85.2607 75.5294 85.2607C76.35 85.2607 77.0885 85.1259 77.7231 84.8604C78.3536 84.5965 78.8914 84.2178 79.3209 83.7346C79.7389 83.2647 80.0553 82.6976 80.2614 82.0486C80.4622 81.4159 80.5642 80.6994 80.5642 79.9191V76.4082C80.5642 76.1827 80.3269 76 80.0346 76H75.5294C75.2371 76 75 76.1829 75 76.4082V79.9191C75 80.1446 75.2371 80.3274 75.5294 80.3274H77.1954C77.1176 81.9563 76.5582 82.7814 75.5294 82.7814Z" fill="white"/>
<defs>
<pattern id="pattern0_1748_193" patternContentUnits="objectBoundingBox" width="1" height="1">
<use xlink:href="#image0_1748_193" transform="translate(0 -0.0384615) scale(0.00384615)"/>
</pattern>
<image id="image0_1748_193" width="260" height="280" xlink:href="images/Frame 22 (1).png"/>
</defs>
</svg>
